<?xml version="1.0" standalone="no"?><svg xmlns:xlink="http://www.w3.org/1999/xlink" xmlns="http://www.w3.org/2000/svg" viewBox="0 0 5000 3181.827898464336" preserveAspectRatio="xMaxYMax slice"><g transform="scale(8.221777515411722)"><rect x="0" y="0" width="608.1428571428571" height="387" fill="#ffffff"/><rect x="0" y="0" width="55.285714285714285" height="55.285714285714285" fill="#ffffff"/><rect x="0" y="0" width="27.64" height="27.64" fill="#33d150"/><path d="M 0 27.64 A 27.64 27.64 0 0 0 27.64 0 L 0 0" fill="#8ce59c"/><rect x="27.64" y="0" width="27.64" height="27.64" fill="#fbfefc"/><path d="M 27.64 0 A 27.64 27.64 0 0 0 55.28 27.64 L 55.28 0" fill="#c8c8c8"/><rect x="0" y="27.64" width="27.64" height="27.64" fill="#c1c1c1"/><path d="M 0 27.64 A 27.64 27.64 0 0 1 27.64 55.28 L 0 55.28" fill="#bbf0c4"/><rect x="27.64" y="27.64" width="27.64" height="27.64" fill="#090909"/><path d="M 27.64 55.28 A 27.64 27.64 0 0 1  55.28 27.64 L 55.28 55.28" fill="#d8d8d8"/><rect x="55.285714285714285" y="0" width="55.285714285714285" height="55.285714285714285" fill="#ffffff"/><rect x="55.29" y="0" width="27.64" height="27.64" fill="#05c728"/><path d="M 55.29 27.64 A 27.64 27.64 0 0 1 82.93 0 L 82.93 6.91 A 20.73 20.73 0 0 0 62.2 27.64" fill="#d0f4d7"/><rect x="82.93" y="0" width="27.64" height="27.64" fill="#09c82c"/><path d="M 82.93 0 A 27.64 27.64 0 0 1 110.57000000000001 27.64 L 103.66000000000001 27.64 A 20.73 20.73 0 0 0 82.93 6.91" fill="#808080"/><rect x="55.29" y="27.64" width="27.64" height="27.64" fill="#5f5f5f"/><path d="M 55.29 27.64 A 27.64 27.64 0 0 0 82.93 55.28 L 82.93 48.370000000000005 A 20.73 20.73 0 0 1 62.2 27.64" fill="#f98088"/><rect x="82.93" y="27.64" width="27.64" height="27.64" fill="#fffbfb"/><path d="M 82.93 55.28 A 27.64 27.64 0 0 0 110.57000000000001 27.64 L 103.66000000000001 27.64 A 20.73 20.73 0 0 1 82.93 48.370000000000005" fill="#70df84"/><rect x="110.57142857142857" y="0" width="55.285714285714285" height="55.285714285714285" fill="#ffffff"/><rect x="110.57" y="0" width="27.64" height="27.64" fill="#10c932"/><path d="M 110.57 27.64 A 27.64 27.64 0 0 1  138.20999999999998 0 L 138.20999999999998 27.64" fill="#a8ebb4"/><rect x="138.21" y="0" width="27.64" height="27.64" fill="#84e395"/><path d="M 138.21 0 A 27.64 27.64 0 0 1 165.85000000000002 27.64 L 138.21 27.64" fill="#fdd3d6"/><rect x="110.57" y="27.64" width="27.64" height="27.64" fill="#a5ebb2"/><path d="M 110.57 27.64 A 27.64 27.64 0 0 0 138.20999999999998 55.28 L 138.20999999999998 27.64" fill="#82e394"/><rect x="138.21" y="27.64" width="27.64" height="27.64" fill="#fa979d"/><path d="M 138.21 55.28 A 27.64 27.64 0 0 0 165.85000000000002 27.64 L 138.21 27.64" fill="#f5fdf6"/><rect x="165.85714285714286" y="0" width="55.285714285714285" height="55.285714285714285" fill="#ffffff"/><rect x="165.86" y="0" width="27.64" height="27.64" fill="#f52230"/><path d="M 165.86 27.64 A 27.64 27.64 0 0 1 193.5 0 L 193.5 6.91 A 20.73 20.73 0 0 0 172.77 27.64" fill="#fba1a7"/><rect x="193.5" y="0" width="27.64" height="27.64" fill="#7f7f7f"/><path d="M 193.5 0 A 27.64 27.64 0 0 1 221.14 27.64 L 214.23 27.64 A 20.73 20.73 0 0 0 193.5 6.91" fill="#5ada72"/><rect x="165.86" y="27.64" width="27.64" height="27.64" fill="#fbaaaf"/><path d="M 165.86 27.64 A 27.64 27.64 0 0 0 193.5 55.28 L 193.5 48.370000000000005 A 20.73 20.73 0 0 1 172.77 27.64" fill="#06c72a"/><rect x="193.5" y="27.64" width="27.64" height="27.64" fill="#4ed767"/><path d="M 193.5 55.28 A 27.64 27.64 0 0 0 221.14 27.64 L 214.23 27.64 A 20.73 20.73 0 0 1 193.5 48.370000000000005" fill="#fa959c"/><rect x="221.14" y="0" width="55.29" height="55.29" fill="#f74d58"/><polygon points="276.43,0 276.43,55.29 221.14,55.29" fill="#fdfdfd"/><rect x="276.43" y="0" width="55.29" height="55.29" fill="#fffbfb"/><polygon points="276.43,0 331.72,0 331.72,55.29" fill="#0a0a0a"/><rect x="331.71" y="0" width="55.29" height="55.29" fill="#2c2c2c"/><rect x="331.71" y="0" width="55.29" height="55.29" fill="#5f5f5f"/><rect x="387" y="0" width="55.29" height="55.29" fill="#4d4d4d"/><rect x="387" y="0" width="55.29" height="55.29" fill="#f74c57"/><rect x="442.29" y="0" width="55.29" height="55.29" fill="#f74b56"/><rect x="442.29" y="0" width="55.29" height="55.29" fill="#f51827"/><rect x="497.57" y="0" width="55.29" height="55.29" fill="#d0d0d0"/><rect x="497.57" y="0" width="55.29" height="55.29" fill="#fedddf"/><rect x="552.86" y="0" width="55.29" height="55.29" fill="#424242"/><path d="M 552.86 0 A 55.29 55.29 0 0 1 608.15 55.29 L 552.86 55.29" fill="#cbf3d3"/><rect x="0" y="55.285714285714285" width="55.285714285714285" height="55.285714285714285" fill="#ffffff"/><rect x="0" y="55.29" width="27.64" height="27.64" fill="#989898"/><path d="M 0 55.29 A 27.64 27.64 0 0 0 27.64 82.93 L 27.64 55.29" fill="#feedee"/><rect x="27.64" y="55.29" width="27.64" height="27.64" fill="#636363"/><path d="M 27.64 82.93 A 27.64 27.64 0 0 0 55.28 55.29 L 27.64 55.29" fill="#1a1a1a"/><rect x="0" y="82.93" width="27.64" height="27.64" fill="#060606"/><path d="M 0 110.57000000000001 A 27.64 27.64 0 0 1  27.64 82.93 L 27.64 110.57000000000001" fill="#4ad663"/><rect x="27.64" y="82.93" width="27.64" height="27.64" fill="#e3f9e7"/><path d="M 27.64 82.93 A 27.64 27.64 0 0 1 55.28 110.57000000000001 L 27.64 110.57000000000001" fill="#10c932"/><rect x="55.29" y="55.29" width="55.29" height="55.29" fill="#212121"/><path d="M 55.29 55.29 A 55.29 55.29 0 0 1  110.58 110.58 L 55.29 55.29 A 55.29 55.29 0 0 0 110.58 110.58" fill="#55d96d"/><rect x="110.57" y="55.29" width="55.29" height="55.29" fill="#cbf3d2"/><rect x="110.57" y="55.29" width="55.29" height="55.29" fill="#50d869"/><rect x="165.86" y="55.29" width="55.29" height="55.29" fill="#f9767f"/><rect x="165.86" y="55.29" width="55.29" height="55.29" fill="#1b1b1b"/><rect x="221.14285714285714" y="55.285714285714285" width="55.285714285714285" height="55.285714285714285" fill="#ffffff"/><rect x="221.14" y="55.29" width="27.64" height="27.64" fill="#d8f6dd"/><polygon points="248.77999999999997,55.29 248.77999999999997,82.93 221.14,82.93" fill="#4a4a4a"/><rect x="248.79" y="55.29" width="27.64" height="27.64" fill="#3bd357"/><polygon points="248.79,55.29 276.43,55.29 248.79,82.93" fill="#fa8e95"/><rect x="221.14" y="82.93" width="27.64" height="27.64" fill="#4ed767"/><polygon points="221.14,82.93 248.77999999999997,82.93 248.77999999999997,110.57000000000001" fill="#f9737c"/><rect x="248.79" y="82.93" width="27.64" height="27.64" fill="#5ddb74"/><polygon points="248.79,82.93 276.43,110.57000000000001 248.79,110.57000000000001" fill="#868686"/><rect x="276.43" y="55.29" width="55.29" height="55.29" fill="#515151"/><rect x="276.43" y="55.29" width="55.29" height="55.29" fill="#b3b3b3"/><rect x="331.7142857142857" y="55.285714285714285" width="55.285714285714285" height="55.285714285714285" fill="#ffffff"/><rect x="331.71" y="55.29" width="27.64" height="27.64" fill="#b8efc2"/><polygon points="359.34999999999997,55.29 359.34999999999997,82.93 331.71,82.93" fill="#686868"/><rect x="359.36" y="55.29" width="27.64" height="27.64" fill="#13ca35"/><polygon points="359.36,55.29 387,82.93 359.36,82.93" fill="#d4d4d4"/><rect x="331.71" y="82.93" width="27.64" height="27.64" fill="#f51c2a"/><polygon points="331.71,82.93 359.34999999999997,82.93 359.34999999999997,110.57000000000001" fill="#fa969d"/><rect x="359.36" y="82.93" width="27.64" height="27.64" fill="#f98088"/><polygon points="359.36,82.93 387,82.93 359.36,110.57000000000001" fill="#6ade7f"/><rect x="387" y="55.285714285714285" width="55.285714285714285" height="55.285714285714285" fill="#ffffff"/><rect x="387" y="55.29" width="27.64" height="27.64" fill="#f74753"/><polygon points="414.64,55.29 414.64,82.93 387,82.93" fill="#f62e3b"/><rect x="414.64" y="55.29" width="27.64" height="27.64" fill="#7a7a7a"/><polygon points="414.64,55.29 442.28,82.93 414.64,82.93" fill="#e5e5e5"/><rect x="387" y="82.93" width="27.64" height="27.64" fill="#585858"/><polygon points="387,82.93 414.64,82.93 414.64,110.57000000000001" fill="#0f0f0f"/><rect x="414.64" y="82.93" width="27.64" height="27.64" fill="#dbdbdb"/><polygon points="414.64,82.93 442.28,82.93 414.64,110.57000000000001" fill="#414141"/><rect x="442.2857142857143" y="55.285714285714285" width="55.285714285714285" height="55.285714285714285" fill="#ffffff"/><rect x="442.29" y="55.29" width="27.64" height="27.64" fill="#4d4d4d"/><polygon points="469.93,55.29 469.93,82.93 442.29,82.93" fill="#29cf48"/><rect x="469.93" y="55.29" width="27.64" height="27.64" fill="#fcbbc0"/><polygon points="469.93,55.29 497.57,82.93 469.93,82.93" fill="#7a7a7a"/><rect x="442.29" y="82.93" width="27.64" height="27.64" fill="#696969"/><polygon points="442.29,82.93 469.93,82.93 469.93,110.57000000000001" fill="#51d869"/><rect x="469.93" y="82.93" width="27.64" height="27.64" fill="#f1fcf3"/><polygon points="469.93,82.93 497.57,82.93 469.93,110.57000000000001" fill="#edfbf0"/><rect x="497.57142857142856" y="55.285714285714285" width="55.285714285714285" height="55.285714285714285" fill="#ffffff"/><rect x="497.57" y="55.29" width="27.64" height="27.64" fill="#b6efc0"/><circle cx="511.39" cy="69.11" r="13.82" fill="#dddddd"/><rect x="525.21" y="55.29" width="27.64" height="27.64" fill="#dedede"/><rect x="525.21" y="55.29" width="27.64" height="27.64" fill="#f51625"/><rect x="497.57" y="82.93" width="27.64" height="27.64" fill="#f51423"/><circle cx="511.39" cy="96.75" r="13.82" fill="#fee7e9"/><rect x="525.21" y="82.93" width="27.64" height="27.64" fill="#818181"/><rect x="525.21" y="82.93" width="27.64" height="27.64" fill="#ebfbee"/><rect x="552.86" y="55.29" width="55.29" height="55.29" fill="#f51827"/><polygon points="552.86,55.29 608.15,55.29 552.86,110.58" fill="#d3f5da"/><rect x="0" y="110.57" width="55.29" height="55.29" fill="#f51120"/><path d="M 0 110.57 A 55.29 55.29 0 0 1  55.29 165.85999999999999 L 0 110.57 A 55.29 55.29 0 0 0 55.29 165.85999999999999" fill="#a6a6a6"/><rect x="55.285714285714285" y="110.57142857142857" width="55.285714285714285" height="55.285714285714285" fill="#ffffff"/><rect x="55.29" y="110.57" width="27.64" height="27.64" fill="#f7404c"/><polygon points="82.93,110.57 82.93,138.20999999999998 55.29,138.20999999999998" fill="#f85f69"/><rect x="82.93" y="110.57" width="27.64" height="27.64" fill="#f52230"/><polygon points="82.93,110.57 110.57000000000001,138.20999999999998 82.93,138.20999999999998" fill="#454545"/><rect x="55.29" y="138.21" width="27.64" height="27.64" fill="#66dd7c"/><polygon points="55.29,138.21 82.93,138.21 55.29,165.85000000000002" fill="#fba7ad"/><rect x="82.93" y="138.21" width="27.64" height="27.64" fill="#f62432"/><polygon points="82.93,138.21 110.57000000000001,138.21 110.57000000000001,165.85000000000002" fill="#ededed"/><rect x="110.57142857142857" y="110.57142857142857" width="55.285714285714285" height="55.285714285714285" fill="#ffffff"/><rect x="110.57" y="110.57" width="27.64" height="27.64" fill="#1ccc3c"/><path d="M 110.57 110.57 A 27.64 27.64 0 0 0 138.20999999999998 138.20999999999998 L 138.20999999999998 110.57" fill="#868686"/><rect x="138.21" y="110.57" width="27.64" height="27.64" fill="#4ad664"/><path d="M 138.21 138.20999999999998 A 27.64 27.64 0 0 0 165.85000000000002 110.57 L 138.21 110.57" fill="#26ce44"/><rect x="110.57" y="138.21" width="27.64" height="27.64" fill="#f8636d"/><path d="M 110.57 165.85000000000002 A 27.64 27.64 0 0 1  138.20999999999998 138.21 L 138.20999999999998 165.85000000000002" fill="#19cb3a"/><rect x="138.21" y="138.21" width="27.64" height="27.64" fill="#8a8a8a"/><path d="M 138.21 138.21 A 27.64 27.64 0 0 1 165.85000000000002 165.85000000000002 L 138.21 165.85000000000002" fill="#f5202e"/><rect x="165.86" y="110.57" width="55.29" height="55.29" fill="#2e2e2e"/><rect x="165.86" y="110.57" width="55.29" height="55.29" fill="#bcf0c5"/><rect x="221.14" y="110.57" width="55.29" height="55.29" fill="#b5eebf"/><rect x="221.14" y="110.57" width="55.29" height="55.29" fill="#44d55f"/><rect x="276.43" y="110.57" width="55.29" height="55.29" fill="#6d6d6d"/><rect x="276.43" y="110.57" width="55.29" height="55.29" fill="#4a4a4a"/><rect x="331.71" y="110.57" width="55.29" height="55.29" fill="#2bd049"/><rect x="331.71" y="110.57" width="55.29" height="55.29" fill="#c3c3c3"/><rect x="387" y="110.57142857142857" width="55.285714285714285" height="55.285714285714285" fill="#ffffff"/><rect x="387" y="110.57" width="27.64" height="27.64" fill="#858585"/><path d="M 387 110.57 A 27.64 27.64 0 0 1 414.64 138.20999999999998 L 387 138.20999999999998" fill="#a4a4a4"/><rect x="414.64" y="110.57" width="27.64" height="27.64" fill="#626262"/><path d="M 414.64 138.20999999999998 A 27.64 27.64 0 0 1  442.28 110.57 L 442.28 138.20999999999998" fill="#fb9aa0"/><rect x="387" y="138.21" width="27.64" height="27.64" fill="#fa8189"/><path d="M 387 165.85000000000002 A 27.64 27.64 0 0 0 414.64 138.21 L 387 138.21" fill="#8ce59d"/><rect x="414.64" y="138.21" width="27.64" height="27.64" fill="#75e088"/><path d="M 414.64 138.21 A 27.64 27.64 0 0 0 442.28 165.85000000000002 L 442.28 138.21" fill="#4ad664"/><rect x="442.2857142857143" y="110.57142857142857" width="55.285714285714285" height="55.285714285714285" fill="#ffffff"/><rect x="442.29" y="110.57" width="27.64" height="27.64" fill="#818181"/><path d="M 442.29 138.20999999999998 A 27.64 27.64 0 0 0 469.93 110.57 L 442.29 110.57" fill="#c9f3d1"/><rect x="469.93" y="110.57" width="27.64" height="27.64" fill="#f63340"/><path d="M 469.93 110.57 A 27.64 27.64 0 0 0 497.57 138.20999999999998 L 497.57 110.57" fill="#dadada"/><rect x="442.29" y="138.21" width="27.64" height="27.64" fill="#97e8a6"/><path d="M 442.29 138.21 A 27.64 27.64 0 0 1 469.93 165.85000000000002 L 442.29 165.85000000000002" fill="#cbcbcb"/><rect x="469.93" y="138.21" width="27.64" height="27.64" fill="#bef0c7"/><path d="M 469.93 165.85000000000002 A 27.64 27.64 0 0 1  497.57 138.21 L 497.57 165.85000000000002" fill="#888888"/><rect x="497.57" y="110.57" width="55.29" height="55.29" fill="#f5fdf6"/><rect x="497.57" y="110.57" width="55.29" height="55.29" fill="#f74b56"/><rect x="552.86" y="110.57" width="55.29" height="55.29" fill="#19cb3a"/><polygon points="552.86,110.57 608.15,165.85999999999999 552.86,165.85999999999999" fill="#9f9f9f"/><rect x="0" y="165.86" width="55.29" height="55.29" fill="#f9757e"/><rect x="0" y="165.86" width="55.29" height="55.29" fill="#c1c1c1"/><rect x="55.285714285714285" y="165.85714285714286" width="55.285714285714285" height="55.285714285714285" fill="#ffffff"/><rect x="55.29" y="165.86" width="27.64" height="27.64" fill="#f7414d"/><polygon points="82.93,165.86 82.93,193.5 55.29,193.5" fill="#f62d3a"/><rect x="82.93" y="165.86" width="27.64" height="27.64" fill="#e1f8e5"/><polygon points="82.93,165.86 110.57000000000001,165.86 82.93,193.5" fill="#def8e3"/><rect x="55.29" y="193.5" width="27.64" height="27.64" fill="#bcbcbc"/><polygon points="55.29,193.5 82.93,193.5 82.93,221.14" fill="#f40414"/><rect x="82.93" y="193.5" width="27.64" height="27.64" fill="#9d9d9d"/><polygon points="82.93,193.5 110.57000000000001,221.14 82.93,221.14" fill="#f63744"/><rect x="110.57142857142857" y="165.85714285714286" width="55.285714285714285" height="55.285714285714285" fill="#ffffff"/><rect x="110.57" y="165.86" width="27.64" height="27.64" fill="#f6fdf7"/><path d="M 110.57 165.86 A 27.64 27.64 0 0 0 138.20999999999998 193.5 L 138.20999999999998 165.86" fill="#18cb39"/><rect x="138.21" y="165.86" width="27.64" height="27.64" fill="#f0fcf2"/><path d="M 138.21 193.5 A 27.64 27.64 0 0 0 165.85000000000002 165.86 L 138.21 165.86" fill="#fa939a"/><rect x="110.57" y="193.5" width="27.64" height="27.64" fill="#bcf0c6"/><path d="M 110.57 221.14 A 27.64 27.64 0 0 1  138.20999999999998 193.5 L 138.20999999999998 221.14" fill="#acecb7"/><rect x="138.21" y="193.5" width="27.64" height="27.64" fill="#838383"/><path d="M 138.21 193.5 A 27.64 27.64 0 0 1 165.85000000000002 221.14 L 138.21 221.14" fill="#adedb9"/><rect x="165.85714285714286" y="165.85714285714286" width="55.285714285714285" height="55.285714285714285" fill="#ffffff"/><rect x="165.86" y="165.86" width="27.64" height="27.64" fill="#bababa"/><polygon points="193.5,165.86 193.5,193.5 165.86,193.5" fill="#f7fdf8"/><rect x="193.5" y="165.86" width="27.64" height="27.64" fill="#989898"/><polygon points="193.5,165.86 221.14,193.5 193.5,193.5" fill="#2a2a2a"/><rect x="165.86" y="193.5" width="27.64" height="27.64" fill="#19cb3a"/><polygon points="165.86,193.5 193.5,193.5 165.86,221.14" fill="#6ade7f"/><rect x="193.5" y="193.5" width="27.64" height="27.64" fill="#fa8a91"/><polygon points="193.5,193.5 221.14,193.5 221.14,221.14" fill="#fddbdd"/><rect x="221.14285714285714" y="165.85714285714286" width="55.285714285714285" height="55.285714285714285" fill="#ffffff"/><rect x="221.14" y="165.86" width="27.64" height="27.64" fill="#0ac82d"/><polygon points="248.77999999999997,165.86 248.77999999999997,193.5 221.14,193.5" fill="#fcbabe"/><rect x="248.79" y="165.86" width="27.64" height="27.64" fill="#2ed04c"/><polygon points="248.79,165.86 276.43,165.86 248.79,193.5" fill="#d9d9d9"/><rect x="221.14" y="193.5" width="27.64" height="27.64" fill="#d4f5da"/><polygon points="221.14,193.5 248.77999999999997,193.5 248.77999999999997,221.14" fill="#fcb1b6"/><rect x="248.79" y="193.5" width="27.64" height="27.64" fill="#96e7a5"/><polygon points="248.79,193.5 276.43,221.14 248.79,221.14" fill="#fee7e8"/><rect x="276.42857142857144" y="165.85714285714286" width="55.285714285714285" height="55.285714285714285" fill="#ffffff"/><rect x="276.43" y="165.86" width="27.64" height="27.64" fill="#61db77"/><path d="M 276.43 165.86 A 27.64 27.64 0 0 1 304.07 193.5 L 276.43 193.5" fill="#def8e3"/><rect x="304.07" y="165.86" width="27.64" height="27.64" fill="#f52230"/><path d="M 304.07 193.5 A 27.64 27.64 0 0 1  331.71 165.86 L 331.71 193.5" fill="#e2f9e6"/><rect x="276.43" y="193.5" width="27.64" height="27.64" fill="#9f9f9f"/><path d="M 276.43 221.14 A 27.64 27.64 0 0 0 304.07 193.5 L 276.43 193.5" fill="#f85762"/><rect x="304.07" y="193.5" width="27.64" height="27.64" fill="#69dd7e"/><path d="M 304.07 193.5 A 27.64 27.64 0 0 0 331.71 221.14 L 331.71 193.5" fill="#e9e9e9"/><rect x="331.7142857142857" y="165.85714285714286" width="55.285714285714285" height="55.285714285714285" fill="#ffffff"/><rect x="331.71" y="165.86" width="27.64" height="27.64" fill="#f8f8f8"/><path d="M 331.71 165.86 A 27.64 27.64 0 0 0 359.34999999999997 193.5 L 359.34999999999997 165.86" fill="#e9e9e9"/><rect x="359.36" y="165.86" width="27.64" height="27.64" fill="#cccccc"/><path d="M 359.36 193.5 A 27.64 27.64 0 0 0 387 165.86 L 359.36 165.86" fill="#69dd7f"/><rect x="331.71" y="193.5" width="27.64" height="27.64" fill="#181818"/><path d="M 331.71 221.14 A 27.64 27.64 0 0 1  359.34999999999997 193.5 L 359.34999999999997 221.14" fill="#2d2d2d"/><rect x="359.36" y="193.5" width="27.64" height="27.64" fill="#fdc8cb"/><path d="M 359.36 193.5 A 27.64 27.64 0 0 1 387 221.14 L 359.36 221.14" fill="#bdbdbd"/><rect x="387" y="165.85714285714286" width="55.285714285714285" height="55.285714285714285" fill="#ffffff"/><rect x="387" y="165.86" width="27.64" height="27.64" fill="#161616"/><circle cx="400.82" cy="179.68" r="13.82" fill="#bff1c8"/><rect x="414.64" y="165.86" width="27.64" height="27.64" fill="#f8616b"/><rect x="414.64" y="165.86" width="27.64" height="27.64" fill="#c0f1c9"/><rect x="387" y="193.5" width="27.64" height="27.64" fill="#2d2d2d"/><circle cx="400.82" cy="207.32" r="13.82" fill="#f9757d"/><rect x="414.64" y="193.5" width="27.64" height="27.64" fill="#fa8a92"/><rect x="414.64" y="193.5" width="27.64" height="27.64" fill="#6dde82"/><rect x="442.29" y="165.86" width="55.29" height="55.29" fill="#f96973"/><rect x="442.29" y="165.86" width="55.29" height="55.29" fill="#2fd04c"/><rect x="497.57" y="165.86" width="55.29" height="55.29" fill="#747474"/><polygon points="497.57,165.86 552.86,165.86 497.57,221.15" fill="#d6f6dc"/><rect x="552.8571428571429" y="165.85714285714286" width="55.285714285714285" height="55.285714285714285" fill="#ffffff"/><rect x="552.86" y="165.86" width="27.64" height="27.64" fill="#50d869"/><polygon points="580.5,165.86 580.5,193.5 552.86,193.5" fill="#57d96f"/><rect x="580.5" y="165.86" width="27.64" height="27.64" fill="#fff6f6"/><polygon points="580.5,165.86 608.14,193.5 580.5,193.5" fill="#d1f5d8"/><rect x="552.86" y="193.5" width="27.64" height="27.64" fill="#08c82b"/><polygon points="552.86,193.5 580.5,193.5 552.86,221.14" fill="#353535"/><rect x="580.5" y="193.5" width="27.64" height="27.64" fill="#84e395"/><polygon points="580.5,193.5 608.14,193.5 608.14,221.14" fill="#76e08a"/><rect x="0" y="221.14" width="55.29" height="55.29" fill="#fffcfc"/><polygon points="55.29,221.14 55.29,276.43 0,276.43" fill="#adadad"/><rect x="55.29" y="221.14" width="55.29" height="55.29" fill="#f62734"/><path d="M 55.29 276.43 A 55.29 55.29 0 0 1  110.58 221.14 L 110.58 276.43" fill="#262626"/><rect x="110.57" y="221.14" width="55.29" height="55.29" fill="#56d96e"/><rect x="110.57" y="221.14" width="55.29" height="55.29" fill="#8be59c"/><rect x="165.85714285714286" y="221.14285714285714" width="55.285714285714285" height="55.285714285714285" fill="#ffffff"/><rect x="165.86" y="221.14" width="27.64" height="27.64" fill="#595959"/><path d="M 165.86 248.77999999999997 A 27.64 27.64 0 0 1  193.5 221.14 L 193.5 248.77999999999997" fill="#5bda72"/><rect x="193.5" y="221.14" width="27.64" height="27.64" fill="#7be18d"/><path d="M 193.5 221.14 A 27.64 27.64 0 0 1 221.14 248.77999999999997 L 193.5 248.77999999999997" fill="#7b7b7b"/><rect x="165.86" y="248.79" width="27.64" height="27.64" fill="#7ce28e"/><path d="M 165.86 248.79 A 27.64 27.64 0 0 0 193.5 276.43 L 193.5 248.79" fill="#636363"/><rect x="193.5" y="248.79" width="27.64" height="27.64" fill="#e0f8e5"/><path d="M 193.5 276.43 A 27.64 27.64 0 0 0 221.14 248.79 L 193.5 248.79" fill="#90e6a0"/><rect x="221.14" y="221.14" width="55.29" height="55.29" fill="#0a0a0a"/><polygon points="221.14,221.14 276.43,221.14 221.14,276.43" fill="#f74d59"/><rect x="276.43" y="221.14" width="55.29" height="55.29" fill="#fba4aa"/><path d="M 276.43 221.14 A 55.29 55.29 0 0 1 331.72 276.43 L 276.43 276.43" fill="#65dc7a"/><rect x="331.71" y="221.14" width="55.29" height="55.29" fill="#f9777f"/><path d="M 331.71 276.43 A 55.29 55.29 0 0 0 387 221.14 L 331.71 221.14" fill="#353535"/><rect x="387" y="221.14285714285714" width="55.285714285714285" height="55.285714285714285" fill="#ffffff"/><rect x="387" y="221.14" width="27.64" height="27.64" fill="#f8636d"/><path d="M 387 221.14 A 27.64 27.64 0 0 0 414.64 248.77999999999997 L 414.64 221.14" fill="#f62936"/><rect x="414.64" y="221.14" width="27.64" height="27.64" fill="#ddf7e2"/><path d="M 414.64 248.77999999999997 A 27.64 27.64 0 0 0 442.28 221.14 L 414.64 221.14" fill="#2a2a2a"/><rect x="387" y="248.79" width="27.64" height="27.64" fill="#c0c0c0"/><path d="M 387 276.43 A 27.64 27.64 0 0 1  414.64 248.79 L 414.64 276.43" fill="#ededed"/><rect x="414.64" y="248.79" width="27.64" height="27.64" fill="#15cb36"/><path d="M 414.64 248.79 A 27.64 27.64 0 0 1 442.28 276.43 L 414.64 276.43" fill="#5bda73"/><rect x="442.2857142857143" y="221.14285714285714" width="55.285714285714285" height="55.285714285714285" fill="#ffffff"/><rect x="442.29" y="221.14" width="27.64" height="27.64" fill="#f63744"/><polygon points="469.93,221.14 469.93,248.77999999999997 442.29,248.77999999999997" fill="#47d661"/><rect x="469.93" y="221.14" width="27.64" height="27.64" fill="#d0f5d7"/><polygon points="469.93,221.14 497.57,248.77999999999997 469.93,248.77999999999997" fill="#fb99a0"/><rect x="442.29" y="248.79" width="27.64" height="27.64" fill="#d1f5d8"/><polygon points="442.29,248.79 469.93,248.79 442.29,276.43" fill="#3bd357"/><rect x="469.93" y="248.79" width="27.64" height="27.64" fill="#0e0e0e"/><polygon points="469.93,248.79 497.57,248.79 497.57,276.43" fill="#26ce45"/><rect x="497.57142857142856" y="221.14285714285714" width="55.285714285714285" height="55.285714285714285" fill="#ffffff"/><rect x="497.57" y="221.14" width="27.64" height="27.64" fill="#fee4e6"/><path d="M 497.57 248.77999999999997 A 27.64 27.64 0 0 1 525.21 221.14 L 525.21 228.04999999999998 A 20.73 20.73 0 0 0 504.48 248.77999999999997" fill="#53d86c"/><rect x="525.21" y="221.14" width="27.64" height="27.64" fill="#dcf7e1"/><path d="M 525.21 221.14 A 27.64 27.64 0 0 1 552.85 248.77999999999997 L 545.94 248.77999999999997 A 20.73 20.73 0 0 0 525.21 228.04999999999998" fill="#d0f4d6"/><rect x="497.57" y="248.79" width="27.64" height="27.64" fill="#25ce44"/><path d="M 497.57 248.79 A 27.64 27.64 0 0 0 525.21 276.43 L 525.21 269.52 A 20.73 20.73 0 0 1 504.48 248.79" fill="#f96a74"/><rect x="525.21" y="248.79" width="27.64" height="27.64" fill="#fa868e"/><path d="M 525.21 276.43 A 27.64 27.64 0 0 0 552.85 248.79 L 545.94 248.79 A 20.73 20.73 0 0 1 525.21 269.52" fill="#bdf0c7"/><rect x="552.86" y="221.14" width="55.29" height="55.29" fill="#fa858c"/><path d="M 552.86 221.14 A 55.29 55.29 0 0 0 608.15 276.43 L 608.15 221.14" fill="#09c82c"/><rect x="0" y="276.43" width="55.29" height="55.29" fill="#c0f1c9"/><rect x="0" y="276.43" width="55.29" height="55.29" fill="#f62836"/><rect x="55.29" y="276.43" width="55.29" height="55.29" fill="#fba1a7"/><rect x="55.29" y="276.43" width="55.29" height="55.29" fill="#0dc92f"/><rect x="110.57142857142857" y="276.42857142857144" width="55.285714285714285" height="55.285714285714285" fill="#ffffff"/><rect x="110.57" y="276.43" width="27.64" height="27.64" fill="#5d5d5d"/><circle cx="124.38999999999999" cy="290.25" r="13.82" fill="#a4ebb1"/><rect x="138.21" y="276.43" width="27.64" height="27.64" fill="#676767"/><rect x="138.21" y="276.43" width="27.64" height="27.64" fill="#0f0f0f"/><rect x="110.57" y="304.07" width="27.64" height="27.64" fill="#f51726"/><circle cx="124.38999999999999" cy="317.89" r="13.82" fill="#e2f9e6"/><rect x="138.21" y="304.07" width="27.64" height="27.64" fill="#fcb9be"/><rect x="138.21" y="304.07" width="27.64" height="27.64" fill="#3ad356"/><rect x="165.85714285714286" y="276.42857142857144" width="55.285714285714285" height="55.285714285714285" fill="#ffffff"/><rect x="165.86" y="276.43" width="27.64" height="27.64" fill="#a5a5a5"/><path d="M 165.86 304.07 A 27.64 27.64 0 0 1  193.5 276.43 L 193.5 304.07" fill="#52d86a"/><rect x="193.5" y="276.43" width="27.64" height="27.64" fill="#fcb0b5"/><path d="M 193.5 276.43 A 27.64 27.64 0 0 1 221.14 304.07 L 193.5 304.07" fill="#baf0c4"/><rect x="165.86" y="304.07" width="27.64" height="27.64" fill="#21cd41"/><path d="M 165.86 304.07 A 27.64 27.64 0 0 0 193.5 331.71 L 193.5 304.07" fill="#f4f4f4"/><rect x="193.5" y="304.07" width="27.64" height="27.64" fill="#f5101f"/><path d="M 193.5 331.71 A 27.64 27.64 0 0 0 221.14 304.07 L 193.5 304.07" fill="#fddcde"/><rect x="221.14" y="276.43" width="55.29" height="55.29" fill="#f62c3a"/><rect x="221.14" y="276.43" width="55.29" height="55.29" fill="#5a5a5a"/><rect x="276.43" y="276.43" width="55.29" height="55.29" fill="#161616"/><rect x="276.43" y="276.43" width="55.29" height="55.29" fill="#808080"/><rect x="331.71" y="276.43" width="55.29" height="55.29" fill="#6a6a6a"/><rect x="331.71" y="276.43" width="55.29" height="55.29" fill="#f51f2d"/><rect x="387" y="276.42857142857144" width="55.285714285714285" height="55.285714285714285" fill="#ffffff"/><rect x="387" y="276.43" width="27.64" height="27.64" fill="#50d869"/><polygon points="414.64,276.43 414.64,304.07 387,304.07" fill="#e9e9e9"/><rect x="414.64" y="276.43" width="27.64" height="27.64" fill="#f63b47"/><polygon points="414.64,276.43 442.28,304.07 414.64,304.07" fill="#d8d8d8"/><rect x="387" y="304.07" width="27.64" height="27.64" fill="#fcbdc1"/><polygon points="387,304.07 414.64,304.07 414.64,331.71" fill="#0bc82e"/><rect x="414.64" y="304.07" width="27.64" height="27.64" fill="#3f3f3f"/><polygon points="414.64,304.07 442.28,304.07 414.64,331.71" fill="#b7b7b7"/><rect x="442.29" y="276.43" width="55.29" height="55.29" fill="#f74f5a"/><polygon points="442.29,276.43 497.58000000000004,276.43 442.29,331.72" fill="#fddcde"/><rect x="497.57142857142856" y="276.42857142857144" width="55.285714285714285" height="55.285714285714285" fill="#ffffff"/><rect x="497.57" y="276.43" width="27.64" height="27.64" fill="#dff8e3"/><path d="M 497.57 276.43 A 27.64 27.64 0 0 0 525.21 304.07 L 525.21 276.43" fill="#757575"/><rect x="525.21" y="276.43" width="27.64" height="27.64" fill="#f5f5f5"/><path d="M 525.21 304.07 A 27.64 27.64 0 0 0 552.85 276.43 L 525.21 276.43" fill="#46d560"/><rect x="497.57" y="304.07" width="27.64" height="27.64" fill="#06c729"/><path d="M 497.57 331.71 A 27.64 27.64 0 0 1  525.21 304.07 L 525.21 331.71" fill="#0fc931"/><rect x="525.21" y="304.07" width="27.64" height="27.64" fill="#fba9af"/><path d="M 525.21 304.07 A 27.64 27.64 0 0 1 552.85 331.71 L 525.21 331.71" fill="#404040"/><rect x="552.8571428571429" y="276.42857142857144" width="55.285714285714285" height="55.285714285714285" fill="#ffffff"/><rect x="552.86" y="276.43" width="27.64" height="27.64" fill="#434343"/><polygon points="580.5,276.43 580.5,304.07 552.86,304.07" fill="#52d86a"/><rect x="580.5" y="276.43" width="27.64" height="27.64" fill="#d8f6dd"/><polygon points="580.5,276.43 608.14,304.07 580.5,304.07" fill="#75e088"/><rect x="552.86" y="304.07" width="27.64" height="27.64" fill="#b8b8b8"/><polygon points="552.86,304.07 580.5,304.07 552.86,331.71" fill="#f62432"/><rect x="580.5" y="304.07" width="27.64" height="27.64" fill="#171717"/><polygon points="580.5,304.07 608.14,304.07 608.14,331.71" fill="#75e088"/><rect x="0" y="331.7142857142857" width="55.285714285714285" height="55.285714285714285" fill="#ffffff"/><rect x="0" y="331.71" width="27.64" height="27.64" fill="#fa949b"/><polygon points="27.64,331.71 27.64,359.34999999999997 0,359.34999999999997" fill="#222222"/><rect x="27.64" y="331.71" width="27.64" height="27.64" fill="#4ed767"/><polygon points="27.64,331.71 55.28,359.34999999999997 27.64,359.34999999999997" fill="#f74752"/><rect x="0" y="359.36" width="27.64" height="27.64" fill="#05c728"/><polygon points="0,359.36 27.64,359.36 0,387" fill="#fa939a"/><rect x="27.64" y="359.36" width="27.64" height="27.64" fill="#f40313"/><polygon points="27.64,359.36 55.28,359.36 55.28,387" fill="#44d55f"/><rect x="55.285714285714285" y="331.7142857142857" width="55.285714285714285" height="55.285714285714285" fill="#ffffff"/><rect x="55.29" y="331.71" width="27.64" height="27.64" fill="#ababab"/><polygon points="82.93,331.71 82.93,359.34999999999997 55.29,359.34999999999997" fill="#e4e4e4"/><rect x="82.93" y="331.71" width="27.64" height="27.64" fill="#fedee0"/><polygon points="82.93,331.71 110.57000000000001,331.71 82.93,359.34999999999997" fill="#70df84"/><rect x="55.29" y="359.36" width="27.64" height="27.64" fill="#e2e2e2"/><polygon points="55.29,359.36 82.93,359.36 82.93,387" fill="#6dde82"/><rect x="82.93" y="359.36" width="27.64" height="27.64" fill="#fb9ba1"/><polygon points="82.93,359.36 110.57000000000001,387 82.93,387" fill="#f5101f"/><rect x="110.57142857142857" y="331.7142857142857" width="55.285714285714285" height="55.285714285714285" fill="#ffffff"/><rect x="110.57" y="331.71" width="27.64" height="27.64" fill="#75e088"/><polygon points="138.20999999999998,331.71 138.20999999999998,359.34999999999997 110.57,359.34999999999997" fill="#34d151"/><rect x="138.21" y="331.71" width="27.64" height="27.64" fill="#616161"/><polygon points="138.21,331.71 165.85000000000002,331.71 138.21,359.34999999999997" fill="#fa8f96"/><rect x="110.57" y="359.36" width="27.64" height="27.64" fill="#2ed04b"/><polygon points="110.57,359.36 138.20999999999998,359.36 138.20999999999998,387" fill="#fcb1b6"/><rect x="138.21" y="359.36" width="27.64" height="27.64" fill="#7f7f7f"/><polygon points="138.21,359.36 165.85000000000002,387 138.21,387" fill="#feebec"/><rect x="165.86" y="331.71" width="55.29" height="55.29" fill="#4d4d4d"/><path d="M 165.86 331.71 A 55.29 55.29 0 0 1  221.15 387 L 165.86 331.71 A 55.29 55.29 0 0 0 221.15 387" fill="#3a3a3a"/><rect x="221.14" y="331.71" width="55.29" height="55.29" fill="#fefefe"/><path d="M 221.14 331.71 A 55.29 55.29 0 0 0 276.43 387 L 276.43 331.71" fill="#94e7a3"/><rect x="276.43" y="331.71" width="55.29" height="55.29" fill="#fffafb"/><polygon points="276.43,331.71 331.72,331.71 276.43,387" fill="#1d1d1d"/><rect x="331.7142857142857" y="331.7142857142857" width="55.285714285714285" height="55.285714285714285" fill="#ffffff"/><rect x="331.71" y="331.71" width="27.64" height="27.64" fill="#3ed45a"/><polygon points="359.34999999999997,331.71 359.34999999999997,359.34999999999997 331.71,359.34999999999997" fill="#b8b8b8"/><rect x="359.36" y="331.71" width="27.64" height="27.64" fill="#fa9097"/><polygon points="359.36,331.71 387,359.34999999999997 359.36,359.34999999999997" fill="#424242"/><rect x="331.71" y="359.36" width="27.64" height="27.64" fill="#64dc7a"/><polygon points="331.71,359.36 359.34999999999997,359.36 359.34999999999997,387" fill="#3ed459"/><rect x="359.36" y="359.36" width="27.64" height="27.64" fill="#5c5c5c"/><polygon points="359.36,359.36 387,359.36 359.36,387" fill="#82e393"/><rect x="387" y="331.71" width="55.29" height="55.29" fill="#303030"/><polygon points="387,331.71 442.29,331.71 387,387" fill="#13ca35"/><rect x="442.2857142857143" y="331.7142857142857" width="55.285714285714285" height="55.285714285714285" fill="#ffffff"/><rect x="442.29" y="331.71" width="27.64" height="27.64" fill="#f8656e"/><path d="M 442.29 359.34999999999997 A 27.64 27.64 0 0 1 469.93 331.71 L 469.93 338.62 A 20.73 20.73 0 0 0 449.20000000000005 359.34999999999997" fill="#6fdf83"/><rect x="469.93" y="331.71" width="27.64" height="27.64" fill="#d0f4d7"/><path d="M 469.93 331.71 A 27.64 27.64 0 0 1 497.57 359.34999999999997 L 490.66 359.34999999999997 A 20.73 20.73 0 0 0 469.93 338.62" fill="#434343"/><rect x="442.29" y="359.36" width="27.64" height="27.64" fill="#dddddd"/><path d="M 442.29 359.36 A 27.64 27.64 0 0 0 469.93 387 L 469.93 380.09000000000003 A 20.73 20.73 0 0 1 449.20000000000005 359.36" fill="#fb9ea4"/><rect x="469.93" y="359.36" width="27.64" height="27.64" fill="#f9717a"/><path d="M 469.93 387 A 27.64 27.64 0 0 0 497.57 359.36 L 490.66 359.36 A 20.73 20.73 0 0 1 469.93 380.09000000000003" fill="#f8646e"/><rect x="497.57" y="331.71" width="55.29" height="55.29" fill="#8a8a8a"/><polygon points="552.86,331.71 552.86,387 497.57,387" fill="#17cb38"/><rect x="552.86" y="331.71" width="55.29" height="55.29" fill="#c5f2ce"/><rect x="552.86" y="331.71" width="55.29" height="55.29" fill="#f51d2b"/></g></svg>